# Blender 4.4.3
# www.blender.org
mtllib mug.mtl
o Cylinder
v -0.027032 -0.070007 -0.064577
v -0.027032 0.070007 -0.064577
v 0.026548 -0.070007 -0.064778
v 0.026548 0.070007 -0.064778
v 0.064577 -0.070007 -0.027032
v 0.064577 0.070007 -0.027032
v 0.064778 -0.070007 0.026548
v 0.064778 0.070007 0.026548
v 0.027032 -0.070007 0.064577
v 0.027032 0.070007 0.064577
v -0.026548 -0.070007 0.064778
v -0.026548 0.070007 0.064778
v -0.064577 -0.070007 0.027032
v -0.064577 0.070007 0.027032
v -0.064778 -0.070007 -0.026548
v -0.064778 0.070007 -0.026548
v -0.027032 -0.047920 -0.064577
v 0.026548 -0.047920 -0.064778
v 0.064577 -0.047920 -0.027032
v 0.064778 -0.047920 0.026548
v 0.027032 -0.047920 0.064577
v -0.026548 -0.047920 0.064778
v -0.064577 -0.047920 0.027032
v -0.064778 -0.047920 -0.026548
v -0.027032 0.040464 -0.064577
v 0.026548 0.040464 -0.064778
v 0.064577 0.040464 -0.027032
v 0.064778 0.040464 0.026548
v 0.027032 0.040464 0.064577
v -0.026548 0.040464 0.064778
v -0.064577 0.040464 0.027032
v -0.064778 0.040464 -0.026548
v -0.000242 -0.070007 -0.064677
v -0.000242 0.070007 -0.064677
v -0.000242 -0.047920 -0.064677
v -0.000242 0.041357 -0.064371
v -0.000242 -0.035038 -0.105775
v -0.000242 -0.002528 -0.114363
v -0.000242 0.032436 -0.104548
v -0.000242 -0.047920 -0.064677
v -0.000242 0.041357 -0.064371
v -0.000242 -0.035038 -0.105775
v -0.000242 -0.002528 -0.114363
v -0.000242 0.032436 -0.104548
v -0.007933 -0.047920 -0.065618
v -0.007933 0.041357 -0.065311
v -0.007933 -0.035038 -0.098380
v -0.007933 -0.002528 -0.106968
v -0.007933 0.032436 -0.097153
v 0.008336 -0.047920 -0.065618
v 0.008336 0.041357 -0.065311
v 0.008336 -0.035038 -0.098380
v 0.008336 -0.002528 -0.106968
v 0.008336 0.032436 -0.097153
vn -0.0096 -0.0053 -0.9999
vn 0.7045 -0.0000 -0.7097
vn 1.0000 -0.0000 -0.0037
vn 0.7097 -0.0000 0.7045
vn 0.0037 -0.0000 1.0000
vn -0.7045 -0.0000 0.7097
vn -1.0000 -0.0000 0.0037
vn -0.7097 -0.0000 -0.7045
vn -0.0000 -1.0000 -0.0000
vn -0.0037 -0.0000 -1.0000
vn -0.0094 0.0017 -1.0000
vn 0.0020 0.0017 -1.0000
vn 0.0021 -0.0053 -1.0000
vn -0.0000 1.0000 -0.0000
vn 0.1369 0.9353 0.3262
vn -0.1214 -0.0034 0.9926
vn 0.1004 -0.9658 0.2393
vn 0.6809 0.1870 0.7081
vn 0.6793 -0.1983 0.7065
vn -0.1230 0.9370 0.3268
vn 0.1090 -0.0034 0.9940
vn -0.0901 -0.9667 0.2395
vn -0.6403 0.1962 0.7427
vn -0.6387 -0.2080 0.7409
vn -0.0000 0.2703 -0.9628
vn -0.0000 -0.2554 -0.9668
vt 0.937500 0.894501
vt 0.937500 1.000000
vt 0.875000 1.000000
vt 0.875000 0.894501
vt 0.750000 1.000000
vt 0.750000 0.894501
vt 0.625000 1.000000
vt 0.625000 0.894501
vt 0.500000 1.000000
vt 0.500000 0.894501
vt 0.375000 1.000000
vt 0.375000 0.894501
vt 0.250000 1.000000
vt 0.250000 0.894501
vt 0.125000 1.000000
vt 0.125000 0.894501
vt 0.000000 1.000000
vt 0.000000 0.894501
vt 0.750000 0.490000
vt 0.834853 0.454853
vt 0.919706 0.419706
vt 0.990000 0.250000
vt 0.919706 0.080294
vt 0.750000 0.010000
vt 0.580294 0.080294
vt 0.510000 0.250000
vt 0.580294 0.419706
vt 0.125000 0.500000
vt 0.125000 0.578875
vt 0.000000 0.578875
vt 0.000000 0.500000
vt 0.250000 0.500000
vt 0.250000 0.578875
vt 0.375000 0.500000
vt 0.375000 0.578875
vt 0.500000 0.500000
vt 0.500000 0.578875
vt 0.625000 0.500000
vt 0.625000 0.578875
vt 0.750000 0.500000
vt 0.750000 0.578875
vt 0.875000 0.500000
vt 0.875000 0.578875
vt 0.937500 0.500000
vt 0.937500 0.578875
vt 1.000000 0.578875
vt 1.000000 0.894501
vt 1.000000 0.500000
vt 1.000000 1.000000
vt 0.000000 0.000000
s 0
usemtl Material
f 36/1/1 34/2/1 4/3/1 26/4/1
f 26/4/2 4/3/2 6/5/2 27/6/2
f 27/6/3 6/5/3 8/7/3 28/8/3
f 28/8/4 8/7/4 10/9/4 29/10/4
f 29/10/5 10/9/5 12/11/5 30/12/5
f 30/12/6 12/11/6 14/13/6 31/14/6
f 31/14/7 14/13/7 16/15/7 32/16/7
f 32/16/8 16/15/8 2/17/8 25/18/8
f 1/19/9 33/20/9 3/21/9 5/22/9 7/23/9 9/24/9 11/25/9 13/26/9 15/27/9
f 15/28/8 24/29/8 17/30/8 1/31/8
f 13/32/7 23/33/7 24/29/7 15/28/7
f 11/34/6 22/35/6 23/33/6 13/32/6
f 9/36/5 21/37/5 22/35/5 11/34/5
f 7/38/4 20/39/4 21/37/4 9/36/4
f 5/40/3 19/41/3 20/39/3 7/38/3
f 3/42/2 18/43/2 19/41/2 5/40/2
f 33/44/10 35/45/10 18/43/10 3/42/10
f 24/29/8 32/16/8 25/18/8 17/30/8
f 23/33/7 31/14/7 32/16/7 24/29/7
f 22/35/6 30/12/6 31/14/6 23/33/6
f 21/37/5 29/10/5 30/12/5 22/35/5
f 20/39/4 28/8/4 29/10/4 21/37/4
f 19/41/3 27/6/3 28/8/3 20/39/3
f 18/43/2 26/4/2 27/6/2 19/41/2
f 35/45/11 36/1/11 26/4/11 18/43/11
f 17/46/12 25/47/12 36/1/12 35/45/12
f 1/48/10 17/46/10 35/45/10 33/44/10
f 25/47/13 2/49/13 34/2/13 36/1/13
f 37/50/14 38/50/14 43/50/14 42/50/14
f 35/45/14 36/1/14 41/1/14 40/45/14
f 39/50/14 36/50/14 41/50/14 44/50/14
f 38/50/14 39/50/14 44/50/14 43/50/14
f 35/50/14 37/50/14 42/50/14 40/50/14
f 40/50/15 42/50/15 47/50/15 45/50/15
f 40/45/16 41/1/16 46/1/16 45/45/16
f 44/50/17 41/50/17 46/50/17 49/50/17
f 42/50/18 43/50/18 48/50/18 47/50/18
f 43/50/19 44/50/19 49/50/19 48/50/19
f 42/50/20 40/50/20 50/50/20 52/50/20
f 41/1/21 40/45/21 50/45/21 51/1/21
f 41/50/22 44/50/22 54/50/22 51/50/22
f 43/50/23 42/50/23 52/50/23 53/50/23
f 44/50/24 43/50/24 53/50/24 54/50/24
f 49/50/25 54/50/25 53/50/25 48/50/25
f 48/50/26 53/50/26 52/50/26 47/50/26
o Cylinder.001
v -0.177990 -0.070007 -0.064577
v -0.177990 0.070007 -0.064577
v -0.124409 -0.070007 -0.064778
v -0.124409 0.070007 -0.064778
v -0.086380 -0.070007 -0.027032
v -0.086380 0.070007 -0.027032
v -0.086180 -0.070007 0.026548
v -0.086180 0.070007 0.026548
v -0.123925 -0.070007 0.064577
v -0.123925 0.070007 0.064577
v -0.177505 -0.070007 0.064778
v -0.177505 0.070007 0.064778
v -0.215534 -0.070007 0.027032
v -0.215534 0.070007 0.027032
v -0.215735 -0.070007 -0.026548
v -0.215735 0.070007 -0.026548
v -0.177990 -0.047920 -0.064577
v -0.124409 -0.047920 -0.064778
v -0.086380 -0.047920 -0.027032
v -0.086180 -0.047920 0.026548
v -0.123925 -0.047920 0.064577
v -0.177505 -0.047920 0.064778
v -0.215534 -0.047920 0.027032
v -0.215735 -0.047920 -0.026548
v -0.177990 0.040464 -0.064577
v -0.124409 0.040464 -0.064778
v -0.086380 0.040464 -0.027032
v -0.086180 0.040464 0.026548
v -0.123925 0.040464 0.064577
v -0.177505 0.040464 0.064778
v -0.215534 0.040464 0.027032
v -0.215735 0.040464 -0.026548
v -0.151199 -0.070007 -0.064677
v -0.151199 0.070007 -0.064677
v -0.151199 -0.047920 -0.064677
v -0.151199 0.041357 -0.064371
v -0.151199 -0.035038 -0.105775
v -0.151199 -0.002528 -0.114363
v -0.151199 0.032436 -0.104548
v -0.151199 -0.047920 -0.064677
v -0.151199 0.041357 -0.064371
v -0.151199 -0.035038 -0.105775
v -0.151199 -0.002528 -0.114363
v -0.151199 0.032436 -0.104548
v -0.158891 -0.047920 -0.065618
v -0.158891 0.041357 -0.065311
v -0.158891 -0.035038 -0.098380
v -0.158891 -0.002528 -0.106968
v -0.158891 0.032436 -0.097153
v -0.142621 -0.047920 -0.065618
v -0.142621 0.041357 -0.065311
v -0.142621 -0.035038 -0.098380
v -0.142621 -0.002528 -0.106968
v -0.142621 0.032436 -0.097153
vn -0.0096 -0.0053 -0.9999
vn 0.7045 -0.0000 -0.7097
vn 1.0000 -0.0000 -0.0037
vn 0.7097 -0.0000 0.7045
vn 0.0037 -0.0000 1.0000
vn -0.7045 -0.0000 0.7097
vn -1.0000 -0.0000 0.0037
vn -0.7097 -0.0000 -0.7045
vn -0.0000 -1.0000 -0.0000
vn -0.0037 -0.0000 -1.0000
vn -0.0094 0.0017 -1.0000
vn 0.0020 0.0017 -1.0000
vn 0.0021 -0.0053 -1.0000
vn -0.0000 1.0000 -0.0000
vn 0.1369 0.9353 0.3262
vn -0.1214 -0.0034 0.9926
vn 0.1004 -0.9658 0.2393
vn 0.6809 0.1870 0.7081
vn 0.6793 -0.1983 0.7065
vn -0.1230 0.9370 0.3268
vn 0.1090 -0.0034 0.9940
vn -0.0901 -0.9667 0.2395
vn -0.6403 0.1962 0.7427
vn -0.6387 -0.2080 0.7409
vn -0.0000 0.2703 -0.9628
vn -0.0000 -0.2554 -0.9668
vt 0.937500 0.894501
vt 0.937500 1.000000
vt 0.875000 1.000000
vt 0.875000 0.894501
vt 0.750000 1.000000
vt 0.750000 0.894501
vt 0.625000 1.000000
vt 0.625000 0.894501
vt 0.500000 1.000000
vt 0.500000 0.894501
vt 0.375000 1.000000
vt 0.375000 0.894501
vt 0.250000 1.000000
vt 0.250000 0.894501
vt 0.125000 1.000000
vt 0.125000 0.894501
vt 0.000000 1.000000
vt 0.000000 0.894501
vt 0.750000 0.490000
vt 0.834853 0.454853
vt 0.919706 0.419706
vt 0.990000 0.250000
vt 0.919706 0.080294
vt 0.750000 0.010000
vt 0.580294 0.080294
vt 0.510000 0.250000
vt 0.580294 0.419706
vt 0.125000 0.500000
vt 0.125000 0.578875
vt 0.000000 0.578875
vt 0.000000 0.500000
vt 0.250000 0.500000
vt 0.250000 0.578875
vt 0.375000 0.500000
vt 0.375000 0.578875
vt 0.500000 0.500000
vt 0.500000 0.578875
vt 0.625000 0.500000
vt 0.625000 0.578875
vt 0.750000 0.500000
vt 0.750000 0.578875
vt 0.875000 0.500000
vt 0.875000 0.578875
vt 0.937500 0.500000
vt 0.937500 0.578875
vt 1.000000 0.578875
vt 1.000000 0.894501
vt 1.000000 0.500000
vt 1.000000 1.000000
vt 0.000000 0.000000
s 0
usemtl Material
f 90/51/27 88/52/27 58/53/27 80/54/27
f 80/54/28 58/53/28 60/55/28 81/56/28
f 81/56/29 60/55/29 62/57/29 82/58/29
f 82/58/30 62/57/30 64/59/30 83/60/30
f 83/60/31 64/59/31 66/61/31 84/62/31
f 84/62/32 66/61/32 68/63/32 85/64/32
f 85/64/33 68/63/33 70/65/33 86/66/33
f 86/66/34 70/65/34 56/67/34 79/68/34
f 55/69/35 87/70/35 57/71/35 59/72/35 61/73/35 63/74/35 65/75/35 67/76/35 69/77/35
f 69/78/34 78/79/34 71/80/34 55/81/34
f 67/82/33 77/83/33 78/79/33 69/78/33
f 65/84/32 76/85/32 77/83/32 67/82/32
f 63/86/31 75/87/31 76/85/31 65/84/31
f 61/88/30 74/89/30 75/87/30 63/86/30
f 59/90/29 73/91/29 74/89/29 61/88/29
f 57/92/28 72/93/28 73/91/28 59/90/28
f 87/94/36 89/95/36 72/93/36 57/92/36
f 78/79/34 86/66/34 79/68/34 71/80/34
f 77/83/33 85/64/33 86/66/33 78/79/33
f 76/85/32 84/62/32 85/64/32 77/83/32
f 75/87/31 83/60/31 84/62/31 76/85/31
f 74/89/30 82/58/30 83/60/30 75/87/30
f 73/91/29 81/56/29 82/58/29 74/89/29
f 72/93/28 80/54/28 81/56/28 73/91/28
f 89/95/37 90/51/37 80/54/37 72/93/37
f 71/96/38 79/97/38 90/51/38 89/95/38
f 55/98/36 71/96/36 89/95/36 87/94/36
f 79/97/39 56/99/39 88/52/39 90/51/39
f 91/100/40 92/100/40 97/100/40 96/100/40
f 89/95/40 90/51/40 95/51/40 94/95/40
f 93/100/40 90/100/40 95/100/40 98/100/40
f 92/100/40 93/100/40 98/100/40 97/100/40
f 89/100/40 91/100/40 96/100/40 94/100/40
f 94/100/41 96/100/41 101/100/41 99/100/41
f 94/95/42 95/51/42 100/51/42 99/95/42
f 98/100/43 95/100/43 100/100/43 103/100/43
f 96/100/44 97/100/44 102/100/44 101/100/44
f 97/100/45 98/100/45 103/100/45 102/100/45
f 96/100/46 94/100/46 104/100/46 106/100/46
f 95/51/47 94/95/47 104/95/47 105/51/47
f 95/100/48 98/100/48 108/100/48 105/100/48
f 97/100/49 96/100/49 106/100/49 107/100/49
f 98/100/50 97/100/50 107/100/50 108/100/50
f 103/100/51 108/100/51 107/100/51 102/100/51
f 102/100/52 107/100/52 106/100/52 101/100/52
o Cylinder.002
v -0.177990 0.040464 -0.064577
v -0.124409 0.040464 -0.064778
v -0.086380 0.040464 -0.027032
v -0.086180 0.040464 0.026548
v -0.123925 0.040464 0.064577
v -0.177505 0.040464 0.064778
v -0.215534 0.040464 0.027032
v -0.215735 0.040464 -0.026548
vn -0.0000 1.0000 -0.0000
vt 0.000000 0.000000
vt 0.125000 0.894501
vt 0.750000 0.894501
vt 0.875000 0.894501
vt 0.000000 0.894501
s 0
usemtl Material.001
f 114/101/53 113/101/53 112/101/53 115/101/53
f 116/102/53 111/103/53 110/104/53 109/105/53
f 115/101/53 112/101/53 111/101/53 116/101/53
